<?xml version="1.0" encoding="UTF-8"?>
<svg id="Layer_1" data-name="Layer 1" xmlns="http://www.w3.org/2000/svg" xmlns:xlink="http://www.w3.org/1999/xlink" viewBox="0 0 3000 3000">
  <defs>
    <style>
      .cls-1, .cls-2, .cls-3 {
        fill: none;
      }

      .cls-1, .cls-4 {
        stroke-width: 0px;
      }

      .cls-2 {
        stroke: #232323;
      }

      .cls-2, .cls-3 {
        stroke-miterlimit: 10;
        stroke-width: 2px;
      }

      .cls-5 {
        clip-path: url(#clippath);
      }

      .cls-4 {
        fill: #f9f9f9;
      }

      .cls-3 {
        stroke: #bcbcbc;
      }
    </style>
    <clipPath id="clippath">
      <rect class="cls-1" width="3000" height="3000"/>
    </clipPath>
  </defs>
  <g class="cls-5">
    <rect class="cls-4" width="3000" height="3000"/>
    <line class="cls-3" y1="120" x2="3000" y2="120"/>
    <line class="cls-3" y1="240" x2="3000" y2="240"/>
    <line class="cls-3" y1="360" x2="3000" y2="360"/>
    <line class="cls-3" y1="480" x2="3000" y2="480"/>
    <line class="cls-3" y1="720" x2="3000" y2="720"/>
    <line class="cls-3" y1="840" x2="3000" y2="840"/>
    <line class="cls-3" y1="960" x2="3000" y2="960"/>
    <line class="cls-3" y1="1080" x2="3000" y2="1080"/>
    <line class="cls-3" y1="1320" x2="3000" y2="1320"/>
    <line class="cls-3" y1="1440" x2="3000" y2="1440"/>
    <line class="cls-3" y1="1560" x2="3000" y2="1560"/>
    <line class="cls-3" y1="1680" x2="3000" y2="1680"/>
    <line class="cls-3" y1="1920" x2="3000" y2="1920"/>
    <line class="cls-3" y1="2040" x2="3000" y2="2040"/>
    <line class="cls-3" y1="2160" x2="3000" y2="2160"/>
    <line class="cls-3" y1="2280" x2="3000" y2="2280"/>
    <line class="cls-3" y1="2520" x2="3000" y2="2520"/>
    <line class="cls-3" y1="2640" x2="3000" y2="2640"/>
    <line class="cls-3" y1="2760" x2="3000" y2="2760"/>
    <line class="cls-3" y1="2880" x2="3000" y2="2880"/>
    <line class="cls-3" x1="2880" x2="2880" y2="3000"/>
    <line class="cls-3" x1="2640" x2="2640" y2="3000"/>
    <line class="cls-3" x1="2160" x2="2160" y2="3000"/>
    <line class="cls-3" x1="1920" x2="1920" y2="3000"/>
    <line class="cls-3" x1="1680" x2="1680" y2="3000"/>
    <line class="cls-3" x1="1440" x2="1440" y2="3000"/>
    <line class="cls-3" x1="960" x2="960" y2="3000"/>
    <line class="cls-3" x1="720" x2="720" y2="3000"/>
    <line class="cls-3" x1="480" x2="480" y2="3000"/>
    <line class="cls-3" x1="240" x2="240" y2="3000"/>
    <line class="cls-3" y1="60" x2="3060" y2="60"/>
    <line class="cls-3" y1="180" x2="3060" y2="180"/>
    <line class="cls-3" y1="420" x2="3060" y2="420"/>
    <line class="cls-3" y1="540" x2="3060" y2="540"/>
    <line class="cls-3" y1="660" x2="3060" y2="660"/>
    <line class="cls-3" y1="780" x2="3060" y2="780"/>
    <line class="cls-3" y1="1020" x2="3060" y2="1020"/>
    <line class="cls-3" y1="1140" x2="3060" y2="1140"/>
    <line class="cls-3" y1="1260" x2="3060" y2="1260"/>
    <line class="cls-3" y1="1380" x2="3060" y2="1380"/>
    <line class="cls-3" y1="1620" x2="3060" y2="1620"/>
    <line class="cls-3" y1="1740" x2="3060" y2="1740"/>
    <line class="cls-3" y1="1860" x2="3060" y2="1860"/>
    <line class="cls-3" y1="1980" x2="3060" y2="1980"/>
    <line class="cls-3" y1="2220" x2="3060" y2="2220"/>
    <line class="cls-3" y1="2340" x2="3060" y2="2340"/>
    <line class="cls-3" y1="2460" x2="3060" y2="2460"/>
    <line class="cls-3" y1="2580" x2="3060" y2="2580"/>
    <g>
      <line class="cls-2" x2="3000"/>
      <line class="cls-2" y1="600" x2="3000" y2="600"/>
      <line class="cls-2" y1="1200" x2="3000" y2="1200"/>
      <line class="cls-2" y1="1800" x2="3000" y2="1800"/>
      <line class="cls-2" y1="2400" x2="3000" y2="2400"/>
      <line class="cls-2" y1="3000" x2="3000" y2="3000"/>
      <line class="cls-2" y1="300" x2="3060" y2="300"/>
      <line class="cls-2" y1="900" x2="3060" y2="900"/>
      <line class="cls-2" y1="1500" x2="3060" y2="1500"/>
      <line class="cls-2" y1="2100" x2="3060" y2="2100"/>
      <line class="cls-2" y1="2700" x2="3060" y2="2700"/>
    </g>
    <line class="cls-3" y1="2820" x2="3060" y2="2820"/>
    <line class="cls-3" y1="2940" x2="3060" y2="2940"/>
    <line class="cls-3" x1="2940" y1="-50.03" x2="2940" y2="3060"/>
    <line class="cls-3" x1="2760" x2="2760" y2="3000"/>
    <line class="cls-3" x1="2520" x2="2520" y2="3000"/>
    <line class="cls-3" x1="2280" x2="2280" y2="3000"/>
    <line class="cls-3" x1="2040" x2="2040" y2="3000"/>
    <line class="cls-3" x1="1560" x2="1560" y2="3000"/>
    <line class="cls-3" x1="1320" x2="1320" y2="3000"/>
    <line class="cls-3" x1="1080" x2="1080" y2="3000"/>
    <line class="cls-3" x1="840" x2="840" y2="3000"/>
    <line class="cls-3" x1="360" x2="360" y2="3000"/>
    <line class="cls-3" x1="120" x2="120" y2="3000"/>
    <line class="cls-3" x1="2820" y1="-60" x2="2820" y2="3211.92"/>
    <line class="cls-3" x1="2580" y1="-60" x2="2580" y2="3211.92"/>
    <line class="cls-3" x1="2340" y1="-60" x2="2340" y2="3211.92"/>
    <line class="cls-3" x1="1860" y1="-60" x2="1860" y2="3211.92"/>
    <line class="cls-3" x1="1620" y1="-60" x2="1620" y2="3211.92"/>
    <line class="cls-3" x1="1380" y1="-60" x2="1380" y2="3211.92"/>
    <line class="cls-3" x1="1140" y1="-60" x2="1140" y2="3211.92"/>
    <line class="cls-3" x1="2460" y1="-146.07" x2="2460" y2="3146.07"/>
    <line class="cls-3" x1="2220" y1="-146.07" x2="2220" y2="3146.07"/>
    <line class="cls-3" x1="1980" y1="-146.07" x2="1980" y2="3146.07"/>
    <line class="cls-3" x1="1740" y1="-146.07" x2="1740" y2="3146.07"/>
    <line class="cls-3" x1="1260" y1="-146.07" x2="1260" y2="3146.07"/>
    <line class="cls-3" x1="1020" y1="-146.07" x2="1020" y2="3146.07"/>
    <line class="cls-3" x1="780" y1="-146.07" x2="780" y2="3146.07"/>
    <line class="cls-3" x1="540" y1="-146.07" x2="540" y2="3146.07"/>
    <line class="cls-3" x1="60" y1="-146.07" x2="60" y2="3146.07"/>
    <g>
      <line class="cls-2" x1="2400" y1="-146.07" x2="2400" y2="3146.07"/>
      <line class="cls-2" x1="1200" y1="-146.07" x2="1200" y2="3146.07"/>
      <line class="cls-2" x1="0" y1="-146.07" x2="0" y2="3146.07"/>
      <line class="cls-2" x1="2700" y1="-80.23" x2="2700" y2="3211.92"/>
      <line class="cls-2" x1="1500" y1="-80.23" x2="1500" y2="3211.92"/>
      <line class="cls-2" x1="300" y1="-80.23" x2="300" y2="3211.92"/>
      <line class="cls-2" x1="3000" y1="-146.07" x2="3000" y2="3146.07"/>
      <line class="cls-2" x1="1800" y1="-146.07" x2="1800" y2="3146.07"/>
      <line class="cls-2" x1="600" y1="-146.07" x2="600" y2="3146.07"/>
      <line class="cls-2" x1="2100" y1="-211.92" x2="2100" y2="3080.23"/>
      <line class="cls-2" x1="900" y1="-211.92" x2="900" y2="3080.23"/>
    </g>
    <line class="cls-3" x1="660" y1="-60" x2="660" y2="3211.92"/>
    <line class="cls-3" x1="420" y1="-60" x2="420" y2="3211.92"/>
    <line class="cls-3" x1="180" y1="-60" x2="180" y2="3211.92"/>
    <g>
      <g>
        <circle class="cls-2" cx="150" cy="150" r="150"/>
        <circle class="cls-2" cx="450" cy="150" r="150"/>
        <circle class="cls-2" cx="750" cy="150" r="150"/>
        <circle class="cls-2" cx="1050" cy="150" r="150"/>
        <circle class="cls-2" cx="1350" cy="150" r="150"/>
        <circle class="cls-2" cx="1650" cy="150" r="150"/>
        <circle class="cls-2" cx="1950" cy="150" r="150"/>
        <circle class="cls-2" cx="2250" cy="150" r="150"/>
        <circle class="cls-2" cx="2550" cy="150" r="150"/>
        <circle class="cls-2" cx="2850" cy="150" r="150"/>
      </g>
      <g>
        <circle class="cls-2" cx="150" cy="450" r="150"/>
        <circle class="cls-2" cx="450" cy="450" r="150"/>
        <circle class="cls-2" cx="750" cy="450" r="150"/>
        <circle class="cls-2" cx="1050" cy="450" r="150"/>
        <circle class="cls-2" cx="1350" cy="450" r="150"/>
        <circle class="cls-2" cx="1650" cy="450" r="150"/>
        <circle class="cls-2" cx="1950" cy="450" r="150"/>
        <circle class="cls-2" cx="2250" cy="450" r="150"/>
        <circle class="cls-2" cx="2550" cy="450" r="150"/>
        <circle class="cls-2" cx="2850" cy="450" r="150"/>
      </g>
      <g>
        <circle class="cls-2" cx="150" cy="750" r="150"/>
        <circle class="cls-2" cx="450" cy="750" r="150"/>
        <circle class="cls-2" cx="750" cy="750" r="150"/>
        <circle class="cls-2" cx="1050" cy="750" r="150"/>
        <circle class="cls-2" cx="1350" cy="750" r="150"/>
        <circle class="cls-2" cx="1650" cy="750" r="150"/>
        <circle class="cls-2" cx="1950" cy="750" r="150"/>
        <circle class="cls-2" cx="2250" cy="750" r="150"/>
        <circle class="cls-2" cx="2550" cy="750" r="150"/>
        <circle class="cls-2" cx="2850" cy="750" r="150"/>
      </g>
      <g>
        <circle class="cls-2" cx="150" cy="1050" r="150"/>
        <circle class="cls-2" cx="450" cy="1050" r="150"/>
        <circle class="cls-2" cx="750" cy="1050" r="150"/>
        <circle class="cls-2" cx="1050" cy="1050" r="150"/>
        <circle class="cls-2" cx="1350" cy="1050" r="150"/>
        <circle class="cls-2" cx="1650" cy="1050" r="150"/>
        <circle class="cls-2" cx="1950" cy="1050" r="150"/>
        <circle class="cls-2" cx="2250" cy="1050" r="150"/>
        <circle class="cls-2" cx="2550" cy="1050" r="150"/>
        <circle class="cls-2" cx="2850" cy="1050" r="150"/>
      </g>
      <g>
        <circle class="cls-2" cx="150" cy="1350" r="150"/>
        <circle class="cls-2" cx="450" cy="1350" r="150"/>
        <circle class="cls-2" cx="750" cy="1350" r="150"/>
        <circle class="cls-2" cx="1050" cy="1350" r="150"/>
        <circle class="cls-2" cx="1350" cy="1350" r="150"/>
        <circle class="cls-2" cx="1650" cy="1350" r="150"/>
        <circle class="cls-2" cx="1950" cy="1350" r="150"/>
        <circle class="cls-2" cx="2250" cy="1350" r="150"/>
        <circle class="cls-2" cx="2550" cy="1350" r="150"/>
        <circle class="cls-2" cx="2850" cy="1350" r="150"/>
      </g>
      <g>
        <circle class="cls-2" cx="150" cy="1650" r="150"/>
        <circle class="cls-2" cx="450" cy="1650" r="150"/>
        <circle class="cls-2" cx="750" cy="1650" r="150"/>
        <circle class="cls-2" cx="1050" cy="1650" r="150"/>
        <circle class="cls-2" cx="1350" cy="1650" r="150"/>
        <circle class="cls-2" cx="1650" cy="1650" r="150"/>
        <circle class="cls-2" cx="1950" cy="1650" r="150"/>
        <circle class="cls-2" cx="2250" cy="1650" r="150"/>
        <circle class="cls-2" cx="2550" cy="1650" r="150"/>
        <circle class="cls-2" cx="2850" cy="1650" r="150"/>
      </g>
      <g>
        <circle class="cls-2" cx="150" cy="1950" r="150"/>
        <circle class="cls-2" cx="450" cy="1950" r="150"/>
        <circle class="cls-2" cx="750" cy="1950" r="150"/>
        <circle class="cls-2" cx="1050" cy="1950" r="150"/>
        <circle class="cls-2" cx="1350" cy="1950" r="150"/>
        <circle class="cls-2" cx="1650" cy="1950" r="150"/>
        <circle class="cls-2" cx="1950" cy="1950" r="150"/>
        <circle class="cls-2" cx="2250" cy="1950" r="150"/>
        <circle class="cls-2" cx="2550" cy="1950" r="150"/>
        <circle class="cls-2" cx="2850" cy="1950" r="150"/>
      </g>
      <g>
        <circle class="cls-2" cx="150" cy="2250" r="150"/>
        <circle class="cls-2" cx="450" cy="2250" r="150"/>
        <circle class="cls-2" cx="750" cy="2250" r="150"/>
        <circle class="cls-2" cx="1050" cy="2250" r="150"/>
        <circle class="cls-2" cx="1350" cy="2250" r="150"/>
        <circle class="cls-2" cx="1650" cy="2250" r="150"/>
        <circle class="cls-2" cx="1950" cy="2250" r="150"/>
        <circle class="cls-2" cx="2250" cy="2250" r="150"/>
        <circle class="cls-2" cx="2550" cy="2250" r="150"/>
        <circle class="cls-2" cx="2850" cy="2250" r="150"/>
      </g>
      <g>
        <circle class="cls-2" cx="150" cy="2550" r="150"/>
        <circle class="cls-2" cx="450" cy="2550" r="150"/>
        <circle class="cls-2" cx="750" cy="2550" r="150"/>
        <circle class="cls-2" cx="1050" cy="2550" r="150"/>
        <circle class="cls-2" cx="1350" cy="2550" r="150"/>
        <circle class="cls-2" cx="1650" cy="2550" r="150"/>
        <circle class="cls-2" cx="1950" cy="2550" r="150"/>
        <circle class="cls-2" cx="2250" cy="2550" r="150"/>
        <circle class="cls-2" cx="2550" cy="2550" r="150"/>
        <circle class="cls-2" cx="2850" cy="2550" r="150"/>
      </g>
      <g>
        <circle class="cls-2" cx="150" cy="2850" r="150"/>
        <circle class="cls-2" cx="450" cy="2850" r="150"/>
        <circle class="cls-2" cx="750" cy="2850" r="150"/>
        <circle class="cls-2" cx="1050" cy="2850" r="150"/>
        <circle class="cls-2" cx="1350" cy="2850" r="150"/>
        <circle class="cls-2" cx="1650" cy="2850" r="150"/>
        <circle class="cls-2" cx="1950" cy="2850" r="150"/>
        <circle class="cls-2" cx="2250" cy="2850" r="150"/>
        <circle class="cls-2" cx="2550" cy="2850" r="150"/>
        <circle class="cls-2" cx="2850" cy="2850" r="150"/>
      </g>
    </g>
  </g>
</svg>